<svg width="14" height="14" viewBox="0 0 14 14" fill="none" xmlns="http://www.w3.org/2000/svg">
<path d="M1.93754 4.55168L1.93737 4.55184C1.88528 4.60288 1.8439 4.66379 1.81565 4.73102C1.7874 4.79825 1.77285 4.87044 1.77285 4.94336C1.77285 5.01628 1.7874 5.08847 1.81565 5.1557C1.8439 5.22293 1.88528 5.28384 1.93737 5.33488L1.93763 5.33513L6.59001 9.87113L6.59002 9.87115C6.69974 9.97809 6.84689 10.0379 7.0001 10.0379C7.15331 10.0379 7.30046 9.97809 7.41017 9.87115L7.41018 9.87114L12.0625 5.33608C12.0625 5.33606 12.0625 5.33604 12.0626 5.33602C12.115 5.28496 12.1566 5.22392 12.1851 5.15649C12.2136 5.08904 12.2282 5.01657 12.2282 4.94336C12.2282 4.87015 12.2136 4.79768 12.1851 4.73022C12.1566 4.66277 12.1149 4.60171 12.0625 4.55064L11.9578 4.65811L12.0627 4.5508C11.9565 4.44711 11.814 4.38906 11.6656 4.38906C11.5172 4.38906 11.3747 4.44711 11.2685 4.5508L11.2233 4.59494V4.59573L7.0001 8.71251L2.73166 4.55168L2.62685 4.65898L2.73155 4.55157L2.73161 4.55163C2.62546 4.44797 2.48297 4.38994 2.3346 4.38994C2.1862 4.38994 2.04369 4.44799 1.93754 4.55168L1.93754 4.55168Z" fill="#A4A4AD" stroke="#A4A4AD" stroke-width="0.3"/>
</svg>
