<svg width="101" height="80" viewBox="0 0 101 80" fill="none" xmlns="http://www.w3.org/2000/svg">
<g clip-path="url(#clip0_5169_33480)">
<path d="M15.145 72.0413C34.6704 82.2396 66.3293 82.2396 85.8547 72.0413C105.38 61.843 105.38 45.3079 85.8547 35.1097C66.3293 24.9114 34.6704 24.9114 15.145 35.1097C-4.38037 45.3079 -4.38037 61.843 15.145 72.0413Z" fill="#F5F5F5"/>
<path d="M9.69317 55.3208L3.34619 51.6557V38.0469L9.69317 41.7097V55.3208Z" fill="#E0E0E0"/>
<path d="M9.69336 41.7107L18.7617 36.4766V50.0877L9.69336 55.3218V41.7107Z" fill="#EBEBEB"/>
<path d="M18.7615 36.4775L9.69316 41.7117L3.34619 38.0489L12.4146 32.8125L18.7615 36.4775Z" fill="#F5F5F5"/>
<path d="M10.5996 42.2342L17.8552 38.0469L18.0226 38.1429V43.1828L10.767 47.3702L10.5996 47.2742V42.2342Z" fill="#E0E0E0"/>
<path d="M10.7671 42.328L18.0227 38.1406V43.1806L10.7671 47.368V42.328Z" fill="#F5F5F5"/>
<path d="M13.611 41.5416L14.8456 40.8296C15.0063 40.7381 15.1358 40.7805 15.1358 40.9233C15.1358 41.0662 15.0063 41.2604 14.8456 41.3519L13.611 42.0639C13.4503 42.1554 13.3208 42.1152 13.3208 41.9702C13.3208 41.8251 13.4503 41.6331 13.611 41.5416Z" fill="#E0E0E0"/>
<path d="M10.4344 48.6193L17.6877 44.4297V49.4719L17.8552 49.5679L10.5996 53.7552L10.4321 53.6593L10.4344 48.6193Z" fill="#E0E0E0"/>
<path d="M10.5996 48.7186L17.8552 44.5312V49.5712L10.5996 53.7586V48.7186Z" fill="#F5F5F5"/>
<path d="M13.4435 47.9244L14.6781 47.2124C14.8389 47.1209 14.9683 47.1633 14.9683 47.3061C14.9683 47.449 14.8389 47.6432 14.6781 47.7347L13.4435 48.4467C13.2828 48.5382 13.1533 48.4958 13.1533 48.353C13.1533 48.2079 13.2828 48.0159 13.4435 47.9244Z" fill="#E0E0E0"/>
<path d="M9.69317 40.9246L3.34619 37.2595V23.6484L9.69317 27.3135V40.9246Z" fill="#E0E0E0"/>
<path d="M9.69336 27.3123L18.7617 22.0781V35.687L9.69336 40.9234V27.3123Z" fill="#EBEBEB"/>
<path d="M18.7615 22.0791L9.69316 27.3133L3.34619 23.6482L12.4146 18.4141L18.7615 22.0791Z" fill="#F5F5F5"/>
<path d="M10.5996 27.8358L17.8552 23.6484L18.0226 23.7466L18.0204 28.7866L10.767 32.974L10.5996 32.878V27.8358Z" fill="#E0E0E0"/>
<path d="M13.611 27.1437L14.8456 26.4317C15.0063 26.3402 15.1358 26.3804 15.1358 26.5254C15.1358 26.6705 15.0063 26.8625 14.8456 26.954L13.611 27.666C13.4503 27.7575 13.3208 27.7174 13.3208 27.5723C13.3208 27.4272 13.4503 27.2352 13.611 27.1437Z" fill="#E0E0E0"/>
<path d="M10.4321 34.2186L17.6877 30.0312V35.0735L17.8552 35.1695L10.5996 39.3568L10.4321 39.2608V34.2186Z" fill="#E0E0E0"/>
<path d="M10.5996 34.3146L17.8552 30.125V35.1672L10.5996 39.3546V34.3146Z" fill="#F5F5F5"/>
<path d="M13.4435 33.5265L14.6781 32.8145C14.8389 32.723 14.9683 32.7632 14.9683 32.9083C14.9683 33.0533 14.8389 33.2453 14.6781 33.3368L13.4435 34.0488C13.2828 34.1404 13.1533 34.1002 13.1533 33.9551C13.1533 33.81 13.2828 33.6181 13.4435 33.5265Z" fill="#E0E0E0"/>
<path d="M10.5996 27.8358L17.8552 23.6484V28.6907L10.5996 32.878V27.8358Z" fill="#E0E0E0"/>
<path d="M21.4828 26.1361L17.5112 23.8438V28.2856L21.4828 30.5779V26.1361Z" fill="#E0E0E0"/>
<path d="M13.3208 33.5934V27.3124L14.8768 26.4106L15.1336 26.7878L19.6678 24.1719V29.9306L13.3208 33.5934Z" fill="#EBEBEB"/>
<path d="M13.3208 33.5901L13.774 28.0947L20.121 24.4297L19.6678 29.9273L13.3208 33.5901Z" fill="#F5F5F5"/>
<path d="M14.2275 30.3258L10.7671 28.3281V32.7699L14.2275 34.7676V30.3258Z" fill="#EBEBEB"/>
<path d="M14.2275 29.9318L21.4831 25.7422L21.4809 30.7844L14.2275 34.9718V29.9318Z" fill="#F5F5F5"/>
<path d="M17.0715 29.1437L18.306 28.4317C18.4668 28.3402 18.5963 28.3804 18.5963 28.5254C18.5963 28.6705 18.4668 28.8625 18.306 28.954L17.0715 29.666C16.9107 29.7575 16.7812 29.7174 16.7812 29.5723C16.7812 29.4272 16.9107 29.2352 17.0715 29.1437Z" fill="#E0E0E0"/>
<path d="M14.2274 29.9297L13.9863 29.7891V34.8291L14.2274 34.9697V29.9297Z" fill="#E0E0E0"/>
<path d="M13.9863 29.7889L21.2397 25.6016L21.483 25.7399L14.2274 29.9295L13.9863 29.7889Z" fill="#EBEBEB"/>
<path d="M84.6783 47.0708L78.3291 43.408V29.7969L84.6783 33.4619V47.0708Z" fill="#E0E0E0"/>
<path d="M84.6782 33.4607L93.7466 28.2266V41.8354L84.6782 47.0696V33.4607Z" fill="#EBEBEB"/>
<path d="M93.7467 28.2275L84.6783 33.4617L78.3291 29.7967L87.3975 24.5625L93.7467 28.2275Z" fill="#F5F5F5"/>
<path d="M85.5845 33.9842L92.8401 29.7969L93.0053 29.8929V34.9351L85.7519 39.1224L85.5845 39.0264V33.9842Z" fill="#E0E0E0"/>
<path d="M85.752 34.078L93.0053 29.8906V34.9328L85.752 39.1202V34.078Z" fill="#F5F5F5"/>
<path d="M88.5959 33.2922L89.8305 32.5801C89.9912 32.4886 90.1207 32.5288 90.1207 32.6739C90.1207 32.819 89.9912 33.0109 89.8305 33.1024L88.5959 33.8145C88.4351 33.906 88.3057 33.8658 88.3057 33.7207C88.3057 33.5756 88.4351 33.3837 88.5959 33.2922Z" fill="#E0E0E0"/>
<path d="M85.4175 40.367L92.6731 36.1797V41.2197L92.8405 41.3179L85.5849 45.5052L85.4175 45.4093V40.367Z" fill="#E0E0E0"/>
<path d="M85.585 40.4608L92.8406 36.2734V41.3157L85.585 45.503V40.4608Z" fill="#F5F5F5"/>
<path d="M88.4289 39.6744L89.6635 38.9624C89.8242 38.8709 89.9537 38.9133 89.9537 39.0561C89.9537 39.199 89.8242 39.3932 89.6635 39.4847L88.4289 40.1967C88.2682 40.2882 88.1387 40.2481 88.1387 40.103C88.1387 39.9579 88.2682 39.7659 88.4289 39.6744Z" fill="#E0E0E0"/>
<path d="M24.2784 61.3003C24.2784 61.3003 24.3052 57.7602 22.0727 55.1063C20.0947 52.7559 19.0432 51.2649 19.6683 50.5775C20.2934 49.89 21.6284 49.7248 23.4345 51.6243C25.2406 53.5238 25.3812 58.7937 25.1312 59.9856L24.2761 61.3003H24.2784Z" fill="#00A3E4"/>
<path opacity="0.2" d="M24.2784 61.3003C24.2784 61.3003 24.3052 57.7602 22.0727 55.1063C20.0947 52.7559 19.0432 51.2649 19.6683 50.5775C20.2934 49.89 21.6284 49.7248 23.4345 51.6243C25.2406 53.5238 25.3812 58.7937 25.1312 59.9856L24.2761 61.3003H24.2784Z" fill="black"/>
<path d="M24.6647 57.4909C24.6133 57.4909 24.5665 57.4552 24.5553 57.4016C23.7739 53.7477 21.7669 51.7277 20.6417 50.8483C20.5926 50.8103 20.5837 50.7411 20.6217 50.692C20.6596 50.6429 20.7288 50.634 20.7779 50.6719C21.9277 51.5692 23.9771 53.6317 24.7719 57.3547C24.7852 57.415 24.7473 57.4753 24.687 57.4864C24.6781 57.4864 24.6714 57.4886 24.6647 57.4886V57.4909Z" fill="white"/>
<path d="M24.2024 62.6179L23.296 63.1425C23.296 63.1425 23.0638 62.3278 22.0726 62.0956C21.0814 61.8635 20.0477 61.9104 19.3534 61.0488C18.6591 60.1872 19.5052 59.252 19.3534 58.6159C19.2016 57.982 19.1012 57.7989 17.8577 57.165C16.6119 56.5311 16.1208 55.4798 17.0584 54.7656C17.9961 54.0513 19.5186 54.5758 20.434 55.2008C21.2511 55.7588 22.028 55.9061 22.941 56.0177C23.8519 56.1293 25.341 56.6405 25.1133 58.7587C24.8855 60.8792 24.2069 62.6157 24.2069 62.6157L24.2024 62.6179Z" fill="#00A3E4"/>
<path d="M20.7108 59.83C20.6639 59.83 20.6193 59.801 20.6036 59.7518C20.5858 59.6938 20.617 59.6291 20.6751 59.6112C20.7577 59.5844 22.6888 58.9751 23.5059 59.6313C23.555 59.6693 23.5617 59.7407 23.5237 59.7876C23.4858 59.8367 23.4144 59.8434 23.3675 59.8054C22.6441 59.2251 20.7644 59.8188 20.7443 59.8255C20.7331 59.83 20.722 59.83 20.7108 59.83Z" fill="white"/>
<path d="M24.3052 62.4425C24.2494 62.4425 24.2003 62.4001 24.1936 62.3421C23.6957 57.6414 18.0319 55.4115 17.9761 55.3892C17.918 55.3669 17.889 55.3022 17.9113 55.2441C17.9337 55.1861 17.9984 55.1571 18.0564 55.1794C18.1145 55.2017 23.9056 57.4807 24.4168 62.3175C24.4235 62.3778 24.3789 62.4336 24.3186 62.4403C24.3141 62.4403 24.3097 62.4403 24.3074 62.4403L24.3052 62.4425Z" fill="white"/>
<path d="M79.8339 59.5231C79.8607 59.4472 80.8162 54.5166 79.8339 51.0212C78.932 47.816 77.7755 46.633 76.1146 46.3718C74.4536 46.1107 73.7325 47.307 74.6143 48.9253C75.4962 50.5458 77.617 52.6975 78.1394 56.3179C78.3538 57.8089 78.5324 59.1035 78.5324 59.1035L79.8317 59.5231H79.8339Z" fill="#00A3E4"/>
<path opacity="0.2" d="M79.8339 59.5231C79.8607 59.4472 80.8162 54.5166 79.8339 51.0212C78.932 47.816 77.7755 46.633 76.1146 46.3718C74.4536 46.1107 73.7325 47.307 74.6143 48.9253C75.4962 50.5458 77.617 52.6975 78.1394 56.3179C78.3538 57.8089 78.5324 59.1035 78.5324 59.1035L79.8317 59.5231H79.8339Z" fill="black"/>
<path d="M79.2733 56.6909C79.2733 56.6909 79.2688 56.6909 79.2666 56.6909C79.2041 56.6864 79.1572 56.6351 79.1617 56.5726C79.3894 52.5816 78.0812 49.0193 75.7437 47.2716C75.6946 47.2336 75.6835 47.1644 75.7214 47.1153C75.7571 47.0662 75.8286 47.055 75.8777 47.093C78.2732 48.8831 79.6171 52.5191 79.3849 56.5837C79.3827 56.644 79.3314 56.6886 79.2733 56.6886V56.6909Z" fill="white"/>
<path d="M82.4036 62.089C82.2764 61.1717 82.8033 59.7967 84.0557 59.4708C85.3081 59.1472 85.8662 58.4262 85.4153 57.6405C84.9621 56.8548 85.0692 56.1339 86.2056 55.808C87.3419 55.4821 88.3376 54.9107 87.6835 53.7143C87.208 52.8461 87.103 52.2858 88.2684 50.5738C89.2351 49.1542 88.4448 48.3217 87.2348 48.4802C86.0248 48.6386 85.2769 50.0761 84.5223 50.3194C83.7677 50.5627 83.5891 49.2725 82.5912 49.8484C81.5933 50.4243 81.6558 51.8997 81.6223 52.9286C81.591 53.9576 81.5241 54.1898 80.6221 54.0648C79.7202 53.9398 78.8384 54.0871 78.8562 56.2678C78.8719 58.1383 79.8698 60.4552 79.8698 60.4552L82.4036 62.089Z" fill="#00A3E4"/>
<path d="M80.8208 60.6927C80.8208 60.6927 80.8119 60.6927 80.8074 60.6927C80.7471 60.686 80.7025 60.6302 80.7092 60.57C81.3387 54.9452 86.1654 50.2043 87.4245 49.2423C87.4736 49.2043 87.5428 49.2132 87.5808 49.2623C87.6187 49.3114 87.6098 49.3806 87.5607 49.4186C86.3194 50.3672 81.553 55.0478 80.9324 60.5945C80.9257 60.6525 80.8766 60.6927 80.8208 60.6927Z" fill="white"/>
<path d="M83.0219 54.6826C82.9772 54.6826 82.9348 54.6558 82.9169 54.6089C82.8946 54.5509 82.9259 54.4861 82.9817 54.466C84.7833 53.7964 86.8216 54.1111 86.9086 54.1245C86.9689 54.1335 87.0113 54.1915 87.0002 54.2518C86.9912 54.312 86.931 54.3522 86.8729 54.3455C86.8528 54.341 84.8034 54.0263 83.0598 54.6736C83.0464 54.6781 83.033 54.6803 83.0219 54.6803V54.6826Z" fill="white"/>
<path d="M81.4193 58.0613C81.388 58.0613 81.3567 58.0479 81.3367 58.0234C80.1356 56.6641 79.8766 55.0414 79.8654 54.9722C79.8565 54.9119 79.8989 54.8539 79.9592 54.8449C80.0217 54.836 80.0775 54.8784 80.0865 54.9387C80.0887 54.9543 80.3477 56.5659 81.5041 57.8761C81.5443 57.9229 81.5398 57.9921 81.4952 58.0346C81.4751 58.0524 81.4483 58.0613 81.4215 58.0613H81.4193Z" fill="white"/>
<path d="M24.2021 28.073V62.6209L59.5693 42.2064V10.7969L33.2705 25.9771L32.3641 23.3611L24.2021 28.073Z" fill="#00A3E4"/>
<path opacity="0.7" d="M24.2021 28.073V62.6209L59.5693 42.2064V10.7969L33.2705 25.9771L32.3641 23.3611L24.2021 28.073Z" fill="black"/>
<path d="M24.2021 62.6209L26.0172 31.2135L61.3843 10.7969L59.5693 42.2064L24.2021 62.6209Z" fill="#E0E0E0"/>
<path d="M24.2021 62.6198L26.9236 31.7347L62.2907 11.3203L59.5693 42.2053L24.2021 62.6198Z" fill="#00A3E4"/>
<path opacity="0.7" d="M24.2021 62.6198L26.9236 31.7347L62.2907 11.3203L59.5693 42.2053L24.2021 62.6198Z" fill="black"/>
<path d="M29.645 31.2136V65.7615L65.0122 45.347V13.9375L38.7134 29.12L37.807 26.5018L29.645 31.2136Z" fill="#00A3E4"/>
<path opacity="0.5" d="M29.645 31.2136V65.7615L65.0122 45.347V13.9375L38.7134 29.12L37.807 26.5018L29.645 31.2136Z" fill="black"/>
<path d="M29.645 65.7615L31.4578 34.3542L66.8249 13.9375L65.0122 45.347L29.645 65.7615Z" fill="#E0E0E0"/>
<path d="M29.645 65.7604L32.3642 34.8754L67.7313 14.4609L65.0121 45.346L29.645 65.7604Z" fill="#00A3E4"/>
<path opacity="0.5" d="M29.645 65.7604L32.3642 34.8754L67.7313 14.4609L65.0121 45.346L29.645 65.7604Z" fill="black"/>
<path d="M59.5695 76.7538C53.2225 73.0888 47.3332 69.1068 44.6431 64.4306L52.8051 59.7188L59.5695 76.7538Z" fill="#E0E0E0"/>
<path d="M35.9922 34.8755V69.4255L71.3593 49.0089V17.6016L45.0606 32.7818L44.1542 30.1658L35.9922 34.8755Z" fill="#00A3E4"/>
<path opacity="0.2" d="M35.9922 34.8755V69.4255L71.3593 49.0089V17.6016L45.0606 32.7818L44.1542 30.1658L35.9922 34.8755Z" fill="black"/>
<path d="M46.1813 45.0876C46.092 45.0876 46.0786 44.9849 46.0786 44.9225V15.4548C46.0786 15.2472 46.2304 14.9861 46.409 14.8812L71.9353 0.14732C71.9778 0.122767 72.0179 0.109375 72.0514 0.109375C72.1407 0.109375 72.1541 0.21205 72.1541 0.274547V29.7422C72.1541 29.9498 72.0023 30.2109 71.8237 30.3158L46.2974 45.0497C46.255 45.0742 46.2148 45.0876 46.1813 45.0876Z" fill="white"/>
<path d="M72.0378 0.225438C72.0378 0.225438 72.0445 0.252223 72.0445 0.276775V29.7444C72.0445 29.9096 71.9128 30.1373 71.7699 30.2199L46.2436 44.9537C46.2235 44.9648 46.2079 44.9715 46.1967 44.9738C46.1945 44.9626 46.1923 44.947 46.1923 44.9224V15.457C46.1923 15.2918 46.324 15.0642 46.4669 14.9816L71.991 0.245527C72.011 0.234366 72.0267 0.22767 72.0378 0.225438ZM72.0512 0C71.9999 0 71.9396 0.0178565 71.8793 0.0535694L46.353 14.7874C46.1387 14.9102 45.9668 15.2115 45.9668 15.457V44.9247C45.9668 45.0988 46.0539 45.2014 46.1811 45.2014C46.2325 45.2014 46.2927 45.1836 46.353 45.1479L71.8793 30.414C72.0937 30.2913 72.2655 29.99 72.2655 29.7444V0.276775C72.2655 0.100443 72.1785 0 72.0512 0Z" fill="#00A3E4"/>
<path opacity="0.7" d="M72.0378 0.225438C72.0378 0.225438 72.0445 0.252223 72.0445 0.276775V29.7444C72.0445 29.9096 71.9128 30.1373 71.7699 30.2199L46.2436 44.9537C46.2235 44.9648 46.2079 44.9715 46.1967 44.9738C46.1945 44.9626 46.1923 44.947 46.1923 44.9224V15.457C46.1923 15.2918 46.324 15.0642 46.4669 14.9816L71.991 0.245527C72.011 0.234366 72.0267 0.22767 72.0378 0.225438ZM72.0512 0C71.9999 0 71.9396 0.0178565 71.8793 0.0535694L46.353 14.7874C46.1387 14.9102 45.9668 15.2115 45.9668 15.457V44.9247C45.9668 45.0988 46.0539 45.2014 46.1811 45.2014C46.2325 45.2014 46.2927 45.1836 46.353 45.1479L71.8793 30.414C72.0937 30.2913 72.2655 29.99 72.2655 29.7444V0.276775C72.2655 0.100443 72.1785 0 72.0512 0Z" fill="white"/>
<path d="M48.688 16.5779L57.7564 11.3438V21.8143L48.688 27.0485V16.5779Z" fill="#00A3E4"/>
<path opacity="0.8" d="M48.688 16.5779L57.7564 11.3438V21.8143L48.688 27.0485V16.5779Z" fill="white"/>
<path d="M56.3943 13.9609V17.1014L56.1108 17.2599V16.2979C56.1108 15.7667 55.6777 15.5859 55.1441 15.8939L51.2976 18.1148C50.764 18.4228 50.3309 19.1036 50.3309 19.6348V20.5969L50.0474 20.7665V17.626L56.3943 13.9609Z" fill="white"/>
<path d="M54.6464 21.9641C54.182 22.2319 53.8047 21.9507 53.8047 21.3346V16.2969L52.6394 16.9308V22.0065C52.6394 22.6225 52.2621 23.3413 51.7977 23.6091L50.9561 24.0957V24.4283L55.4902 21.8101V21.4775C55.4902 21.4775 55.113 21.6962 54.6486 21.9641H54.6464Z" fill="white"/>
<path d="M59.5693 10.8268C59.5693 11.117 59.8283 11.1996 60.1498 11.0165L68.9659 5.92743C69.2851 5.74217 69.5463 5.35825 69.5463 5.06808C69.5463 4.77792 69.2874 4.69533 68.9659 4.87836L60.1498 9.96746C59.8283 10.1527 59.5693 10.5366 59.5693 10.8268Z" fill="#455A64"/>
<path d="M59.5693 13.9674C59.5693 14.2576 59.8283 14.3402 60.1498 14.1572L68.9659 9.06805C69.2851 8.88279 69.5463 8.49888 69.5463 8.20871C69.5463 7.91854 69.2874 7.83596 68.9659 8.01898L60.1498 13.1081C59.8283 13.2933 59.5693 13.6773 59.5693 13.9674Z" fill="#455A64"/>
<path d="M59.5693 17.108C59.5693 17.3982 59.8283 17.4808 60.1498 17.2978L68.9659 12.2087C69.2851 12.0234 69.5463 11.6395 69.5463 11.3493C69.5463 11.0592 69.2874 10.9766 68.9659 11.1596L60.1498 16.2487C59.8283 16.434 59.5693 16.8179 59.5693 17.108Z" fill="#455A64"/>
<path d="M59.5693 20.2487C59.5693 20.5388 59.8283 20.6214 60.1498 20.4384L68.9659 15.3493C69.2851 15.164 69.5463 14.7801 69.5463 14.49C69.5463 14.1998 69.2874 14.1172 68.9659 14.3002L60.1498 19.3893C59.8283 19.5746 59.5693 19.9585 59.5693 20.2487Z" fill="#455A64"/>
<path d="M48.688 29.6703C48.688 29.9605 48.947 30.0431 49.2684 29.86L68.9657 18.4899C69.285 18.3047 69.5462 17.9208 69.5462 17.6306C69.5462 17.3404 69.2872 17.2578 68.9657 17.4409L49.2684 28.811C48.9492 28.9962 48.688 29.3801 48.688 29.6703Z" fill="#455A64"/>
<path d="M48.688 32.8109C48.688 33.1011 48.947 33.1837 49.2684 33.0007L68.9657 21.6306C69.285 21.4453 69.5462 21.0614 69.5462 20.7712C69.5462 20.481 69.2872 20.3985 68.9657 20.5815L49.2684 31.9516C48.9492 32.1369 48.688 32.5208 48.688 32.8109Z" fill="#455A64"/>
<path d="M48.688 35.9516C48.688 36.2417 48.947 36.3243 49.2684 36.1413L68.9657 24.7712C69.285 24.5859 69.5462 24.202 69.5462 23.9118C69.5462 23.6217 69.2872 23.5391 68.9657 23.7221L49.2684 35.0922C48.9492 35.2775 48.688 35.6614 48.688 35.9516Z" fill="#455A64"/>
<path d="M35.9922 69.4246L42.3392 41.68L77.7063 21.2656L71.3593 49.0079L35.9922 69.4246Z" fill="#00A3E4"/>
<path d="M44.6455 43.8525V64.4276L52.8053 59.7158V39.1406L44.6455 43.8525Z" fill="#00A3E4"/>
<path opacity="0.2" d="M44.6455 43.8525V64.4276L52.8053 59.7158V39.1406L44.6455 43.8525Z" fill="black"/>
<path d="M59.5785 76.621C58.8842 76.1054 52.1934 70.9895 48.7911 63.684C45.17 55.9075 45.1722 46.8364 45.1744 43.4236V43.3164L69.4371 29.3125C69.4371 32.7588 69.4416 41.8411 73.0761 49.6443C76.4003 56.7802 82.8366 61.8359 83.8568 62.6081L59.5829 76.621H59.5785Z" fill="white"/>
<path d="M69.3231 29.5056C69.3231 33.0947 69.3923 42.0073 72.971 49.6923C76.1836 56.5872 82.2917 61.549 83.6513 62.5959L59.585 76.4882C58.6451 75.7784 52.2022 70.7518 48.8891 63.636C45.277 55.8818 45.2814 46.8308 45.2814 43.4225V43.3801L69.3209 29.5033M69.5442 29.1172L45.0582 43.2506C45.0582 46.4625 44.9912 55.7948 48.686 63.7297C52.3138 71.5174 59.5671 76.7538 59.5671 76.7538L84.0531 62.6204C84.0531 62.6204 76.7975 57.3862 73.1697 49.5963C69.475 41.6614 69.5419 32.3291 69.5419 29.1172H69.5442Z" fill="#00A3E4"/>
<path opacity="0.7" d="M69.3231 29.5056C69.3231 33.0947 69.3923 42.0073 72.971 49.6923C76.1836 56.5872 82.2917 61.549 83.6513 62.5959L59.585 76.4882C58.6451 75.7784 52.2022 70.7518 48.8891 63.636C45.277 55.8818 45.2814 46.8308 45.2814 43.4225V43.3801L69.3209 29.5033M69.5442 29.1172L45.0582 43.2506C45.0582 46.4625 44.9912 55.7948 48.686 63.7297C52.3138 71.5174 59.5671 76.7538 59.5671 76.7538L84.0531 62.6204C84.0531 62.6204 76.7975 57.3862 73.1697 49.5963C69.475 41.6614 69.5419 32.3291 69.5419 29.1172H69.5442Z" fill="white"/>
<path d="M66.7757 33.8582L59.0312 38.329C58.7097 38.5143 58.4575 38.8938 58.4686 39.175C58.4798 39.4585 58.7499 39.5366 59.0714 39.3513L66.8159 34.8805C67.1351 34.6953 67.3852 34.3158 67.374 34.0346C67.3629 33.7511 67.0972 33.673 66.7757 33.8582Z" fill="#455A64"/>
<path d="M66.941 36.9047L59.1965 41.3755C58.875 41.5608 58.6339 41.9335 58.6562 42.2103C58.6808 42.4849 58.9621 42.5585 59.2813 42.3733L67.0258 37.9024C67.3451 37.7172 67.584 37.3444 67.5594 37.0699C67.5348 36.7953 67.258 36.7217 66.9388 36.9069L66.941 36.9047Z" fill="#455A64"/>
<path d="M67.2513 39.8626L59.5068 44.3334C59.1853 44.5186 58.9554 44.8847 58.9934 45.1525C59.0313 45.4204 59.3238 45.4874 59.6452 45.3021L67.3898 40.8313C67.709 40.646 67.9367 40.28 67.8988 40.0121C67.8608 39.7443 67.5728 39.6773 67.2513 39.8626Z" fill="#455A64"/>
<path d="M67.7158 42.7403L59.9713 47.2111C59.6498 47.3964 59.4311 47.7558 59.4846 48.0147C59.5382 48.2736 59.8418 48.3316 60.1633 48.1486L67.9078 43.6778C68.2271 43.4925 68.4436 43.1332 68.39 42.8742C68.3365 42.6153 68.0373 42.5551 67.7181 42.7403H67.7158Z" fill="#455A64"/>
<path d="M68.3454 45.5166L60.6009 49.9875C60.2816 50.1727 60.074 50.5254 60.1432 50.7754C60.2124 51.0254 60.5294 51.0767 60.8509 50.8914L68.5954 46.4206C68.9169 46.2354 69.1178 45.8849 69.0486 45.6349C68.9794 45.385 68.6669 45.3314 68.3476 45.5166H68.3454Z" fill="#455A64"/>
<path d="M69.1513 48.1903L50.2778 59.085C49.9586 59.2703 49.7643 59.614 49.8514 59.8551C49.9385 60.0939 50.2711 60.1363 50.5904 59.9533L69.4638 49.0586C69.7831 48.8733 69.9706 48.5296 69.8835 48.2908C69.7965 48.0519 69.4705 48.0073 69.1491 48.1925L69.1513 48.1903Z" fill="#455A64"/>
<path d="M70.1558 50.7437L51.2823 61.6384C50.9631 61.8237 50.7867 62.1585 50.8916 62.3861C50.9966 62.6138 51.3448 62.6473 51.6641 62.4643L70.5376 51.5696C70.8591 51.3843 71.031 51.0517 70.9238 50.8218C70.8189 50.5942 70.4751 50.5585 70.1536 50.7437H70.1558Z" fill="#455A64"/>
<path d="M71.3881 53.1858L52.5146 64.0805C52.1953 64.2658 52.0346 64.5916 52.1618 64.8082C52.2891 65.0247 52.6552 65.047 52.9745 64.8617L71.848 53.967C72.1694 53.7818 72.3212 53.4581 72.194 53.2439C72.0667 53.0273 71.7073 53.0006 71.3858 53.1858H71.3881Z" fill="#455A64"/>
<path d="M72.8395 55.4876L53.9661 66.3823C53.6468 66.5676 53.5017 66.8845 53.649 67.0899C53.7964 67.2952 54.1759 67.3086 54.4952 67.1234L73.3686 56.2287C73.6879 56.0434 73.8285 55.7287 73.6812 55.5256C73.5338 55.3202 73.1588 55.3024 72.8395 55.4876Z" fill="#455A64"/>
<path d="M74.4869 57.6716L55.6134 68.5662C55.2942 68.7515 55.1625 69.0618 55.3254 69.2559C55.4884 69.4501 55.8813 69.4568 56.2028 69.2716L75.0763 58.3769C75.3955 58.1916 75.5228 57.8858 75.3598 57.6916C75.1968 57.4975 74.8061 57.4863 74.4869 57.6716Z" fill="#455A64"/>
<path d="M76.311 59.7617L57.4375 70.6564C57.1161 70.8417 57 71.143 57.1786 71.3305C57.3572 71.5158 57.7635 71.5158 58.0827 71.3305L76.9562 60.4358C77.2755 60.2506 77.3893 59.9515 77.2107 59.7662C77.0321 59.5809 76.6303 59.5765 76.3088 59.7617H76.311Z" fill="#455A64"/>
<path d="M78.3066 61.7498L59.4331 72.6445C59.1139 72.8297 59.0089 73.1244 59.2032 73.3029C59.3974 73.4793 59.8149 73.4726 60.1363 73.2873L79.0098 62.3926C79.3291 62.2074 79.4318 61.9172 79.2375 61.7386C79.0433 61.5623 78.6281 61.5667 78.3088 61.7498H78.3066Z" fill="#455A64"/>
<path d="M56.2274 39.9453L47.3242 45.0857C47.4224 48.3088 47.7908 52.9627 49.1415 57.6478L58.0446 52.5073C56.6962 47.8223 56.3279 43.1706 56.2274 39.9453Z" fill="#00A3E4"/>
<path opacity="0.8" d="M56.2274 39.9453L47.3242 45.0857C47.4224 48.3088 47.7908 52.9627 49.1415 57.6478L58.0446 52.5073C56.6962 47.8223 56.3279 43.1706 56.2274 39.9453Z" fill="white"/>
<path d="M50.954 44.3738C50.954 43.8739 50.7911 43.4899 50.5187 43.2422L47.3218 45.0881C47.3486 45.9407 47.3932 46.8938 47.4714 47.9184C47.8219 47.9764 48.2349 47.9117 48.6814 47.7063C49.936 47.1215 50.954 45.6283 50.954 44.3738Z" fill="#00A3E4"/>
<path opacity="0.6" d="M50.954 44.3738C50.954 43.8739 50.7911 43.4899 50.5187 43.2422L47.3218 45.0881C47.3486 45.9407 47.3932 46.8938 47.4714 47.9184C47.8219 47.9764 48.2349 47.9117 48.6814 47.7063C49.936 47.1215 50.954 45.6283 50.954 44.3738Z" fill="white"/>
<path d="M57.2874 49.4277C56.6936 48.6778 55.4858 46.3698 54.9701 45.3631C54.8786 45.1846 54.6174 45.2091 54.5571 45.4011C53.6663 48.2626 53.5904 51.2602 53.5904 51.2602C52.8738 50.6933 52.3603 50.1308 51.6995 49.1576C51.6035 49.017 51.387 49.055 51.3445 49.2201C50.3712 52.9678 50.8601 56.6551 50.8601 56.6551L58.042 52.5102C57.7451 51.4768 57.4973 50.4455 57.2874 49.43V49.4277Z" fill="#00A3E4"/>
<path opacity="0.6" d="M57.2874 49.4277C56.6936 48.6778 55.4858 46.3698 54.9701 45.3631C54.8786 45.1846 54.6174 45.2091 54.5571 45.4011C53.6663 48.2626 53.5904 51.2602 53.5904 51.2602C52.8738 50.6933 52.3603 50.1308 51.6995 49.1576C51.6035 49.017 51.387 49.055 51.3445 49.2201C50.3712 52.9678 50.8601 56.6551 50.8601 56.6551L58.042 52.5102C57.7451 51.4768 57.4973 50.4455 57.2874 49.43V49.4277Z" fill="white"/>
</g>
<defs>
<clipPath id="clip0_5169_33480">
<rect width="100" height="79.6935" fill="white" transform="translate(0.5)"/>
</clipPath>
</defs>
</svg>
