<svg width="14" height="14" viewBox="0 0 14 14" fill="none" xmlns="http://www.w3.org/2000/svg">
<path d="M9.62467 3.5026V10.2109C9.62467 10.8298 9.37884 11.4233 8.94126 11.8609C8.50367 12.2984 7.91018 12.5443 7.29134 12.5443C6.6725 12.5443 6.07901 12.2984 5.64143 11.8609C5.20384 11.4233 4.95801 10.8298 4.95801 10.2109V2.91927C4.95801 2.5325 5.11165 2.16156 5.38514 1.88807C5.65863 1.61458 6.02957 1.46094 6.41634 1.46094C6.80312 1.46094 7.17405 1.61458 7.44754 1.88807C7.72103 2.16156 7.87467 2.5325 7.87467 2.91927V9.04427C7.87467 9.19898 7.81322 9.34735 7.70382 9.45675C7.59442 9.56615 7.44605 9.6276 7.29134 9.6276C7.13663 9.6276 6.98826 9.56615 6.87886 9.45675C6.76947 9.34735 6.70801 9.19898 6.70801 9.04427V3.5026H5.83301V9.04427C5.83301 9.43105 5.98665 9.80198 6.26014 10.0755C6.53363 10.349 6.90457 10.5026 7.29134 10.5026C7.67812 10.5026 8.04905 10.349 8.32254 10.0755C8.59603 9.80198 8.74967 9.43105 8.74967 9.04427V2.91927C8.74967 2.30043 8.50384 1.70694 8.06626 1.26936C7.62867 0.83177 7.03518 0.585938 6.41634 0.585938C5.7975 0.585938 5.20401 0.83177 4.76643 1.26936C4.32884 1.70694 4.08301 2.30043 4.08301 2.91927V10.2109C4.08301 11.0618 4.42103 11.8779 5.02271 12.4796C5.62439 13.0813 6.44044 13.4193 7.29134 13.4193C8.14224 13.4193 8.9583 13.0813 9.55998 12.4796C10.1617 11.8779 10.4997 11.0618 10.4997 10.2109V3.5026H9.62467Z" fill="#A4A4AD"/>
</svg>
