<svg width="24" height="24" viewBox="0 0 24 24" fill="none" xmlns="http://www.w3.org/2000/svg">
<path d="M18.0749 2.75391L22.2479 7.10391V23.6459H6.65918V23.6999H22.3012V7.15866L18.0749 2.75391Z" fill="#909090"/>
<path d="M18.0232 2.69922H6.60596V23.6452H22.248V7.10397L18.0232 2.69922Z" fill="#F4F4F4"/>
<path d="M6.49123 3.82422H1.69873V8.94447H16.7737V3.82422H6.49123Z" fill="#7A7B7C"/>
<path d="M16.8541 8.85838H1.79639V3.73438H16.8541V8.85838Z" fill="#DD2025"/>
<path d="M6.78884 4.6012H5.80859V8.2012H6.57959V6.98695L6.74984 6.9967C6.91527 6.99385 7.07915 6.96422 7.23509 6.90895C7.37182 6.86192 7.4976 6.78768 7.60484 6.6907C7.71397 6.59832 7.8 6.48172 7.85609 6.3502C7.93132 6.13157 7.95818 5.89922 7.93484 5.6692C7.93016 5.50488 7.90135 5.34214 7.84934 5.1862C7.802 5.07363 7.73174 4.97215 7.64303 4.88822C7.55432 4.80429 7.44911 4.73975 7.33409 4.6987C7.23465 4.6627 7.13191 4.63657 7.02734 4.6207C6.94816 4.60848 6.86821 4.60197 6.78809 4.6012M6.64634 6.3217H6.57959V5.2117H6.72434C6.78823 5.20709 6.85233 5.2169 6.91192 5.2404C6.9715 5.26389 7.02505 5.30048 7.06859 5.34745C7.15883 5.46821 7.20704 5.6152 7.20584 5.76595C7.20584 5.95045 7.20584 6.1177 7.03934 6.23545C6.91939 6.30142 6.78286 6.33188 6.64634 6.3217ZM9.39959 4.59145C9.31634 4.59145 9.23534 4.59745 9.17834 4.5997L8.99984 4.6042H8.41484V8.2042H9.10334C9.36646 8.21141 9.62843 8.16682 9.87434 8.07295C10.0723 7.99444 10.2476 7.86788 10.3843 7.7047C10.5174 7.54004 10.6128 7.34833 10.6641 7.14295C10.723 6.91035 10.7518 6.67114 10.7496 6.4312C10.7641 6.14782 10.7422 5.86374 10.6843 5.58595C10.6294 5.38147 10.5266 5.19302 10.3843 5.0362C10.2727 4.90957 10.1361 4.80743 9.98309 4.7362C9.85168 4.67539 9.71344 4.63057 9.57134 4.6027C9.51484 4.59337 9.45761 4.5891 9.40034 4.58995M9.26384 7.5427H9.18884V5.2447H9.19859C9.35321 5.22691 9.50966 5.25481 9.64859 5.32495C9.75034 5.4062 9.83325 5.50855 9.89159 5.62495C9.95456 5.74745 9.99086 5.8819 9.99809 6.01945C10.0048 6.18445 9.99809 6.31945 9.99809 6.4312C10.0011 6.55993 9.99287 6.68867 9.97334 6.81595C9.95023 6.94662 9.9075 7.07305 9.84659 7.19095C9.77766 7.30057 9.68453 7.39293 9.57434 7.46095C9.48181 7.5208 9.37223 7.54872 9.26234 7.54045M13.0723 4.6042H11.2498V8.2042H12.0208V6.7762H12.9958V6.1072H12.0208V5.2732H13.0708V4.6042" fill="#464648"/>
<path d="M16.3355 16.3913C16.3355 16.3913 18.7265 15.9578 18.7265 16.7746C18.7265 17.5913 17.2453 17.2591 16.3355 16.3913ZM14.5678 16.4536C14.1879 16.5375 13.8177 16.6604 13.463 16.8203L13.763 16.1453C14.063 15.4703 14.3743 14.5501 14.3743 14.5501C14.7323 15.1526 15.1488 15.7183 15.6178 16.2391C15.2641 16.2918 14.9136 16.3639 14.5678 16.4551V16.4536ZM13.6213 11.5786C13.6213 10.8668 13.8515 10.6726 14.0308 10.6726C14.21 10.6726 14.4118 10.7588 14.4185 11.3768C14.3601 11.9983 14.23 12.6108 14.0308 13.2023C13.7579 12.7057 13.6166 12.1475 13.6205 11.5808L13.6213 11.5786ZM10.1345 19.4656C9.40102 19.0268 11.6728 17.6761 12.0845 17.6326C12.0823 17.6333 10.9025 19.9246 10.1345 19.4656ZM19.4248 16.8713C19.4173 16.7963 19.3498 15.9661 17.8723 16.0013C17.2564 15.9914 16.6409 16.0348 16.0325 16.1311C15.4432 15.5374 14.9357 14.8677 14.5235 14.1398C14.7832 13.3894 14.9404 12.6073 14.9908 11.8148C14.969 10.9148 14.7538 10.3988 14.0638 10.4063C13.3738 10.4138 13.2733 11.0176 13.364 11.9161C13.4529 12.5199 13.6206 13.1094 13.8628 13.6696C13.8628 13.6696 13.544 14.6618 13.1225 15.6488C12.701 16.6358 12.413 17.1533 12.413 17.1533C11.6801 17.3919 10.9901 17.7464 10.3693 18.2033C9.75127 18.7786 9.50002 19.2203 9.82552 19.6621C10.106 20.0431 11.0878 20.1293 11.9653 18.9796C12.4315 18.3857 12.8575 17.7613 13.2403 17.1106C13.2403 17.1106 14.5783 16.7438 14.9945 16.6433C15.4108 16.5428 15.914 16.4633 15.914 16.4633C15.914 16.4633 17.1358 17.6926 18.314 17.6491C19.4923 17.6056 19.4353 16.9448 19.4278 16.8728" fill="#DD2025"/>
<path d="M17.9653 2.75781V7.16256H22.1901L17.9653 2.75781Z" fill="#909090"/>
<path d="M18.0234 2.69922V7.10397H22.2482L18.0234 2.69922Z" fill="#F4F4F4"/>
<path d="M6.73123 4.54261H5.75098V8.14261H6.52498V6.92911L6.69598 6.93886C6.8614 6.93601 7.02528 6.90638 7.18123 6.85111C7.31794 6.80406 7.44372 6.72982 7.55098 6.63286C7.65928 6.54022 7.74453 6.42365 7.79998 6.29236C7.8752 6.07373 7.90207 5.84138 7.87873 5.61136C7.87404 5.44704 7.84523 5.2843 7.79323 5.12836C7.74588 5.01579 7.67562 4.91431 7.58691 4.83038C7.4982 4.74645 7.39299 4.6819 7.27798 4.64086C7.17808 4.6045 7.07482 4.57813 6.96973 4.56211C6.89055 4.54989 6.81059 4.54337 6.73048 4.54261M6.58873 6.26311H6.52198V5.15311H6.66748C6.73136 5.1485 6.79547 5.15831 6.85505 5.1818C6.91464 5.2053 6.96818 5.24189 7.01173 5.28886C7.10197 5.40962 7.15017 5.55661 7.14898 5.70736C7.14898 5.89186 7.14898 6.05911 6.98248 6.17686C6.86253 6.24283 6.72599 6.27253 6.58948 6.26236M9.34198 4.53286C9.25873 4.53286 9.17773 4.53886 9.12073 4.54111L8.94448 4.54561H8.35948V8.14561H9.04798C9.3111 8.15282 9.57306 8.10822 9.81898 8.01436C10.0169 7.93585 10.1922 7.80929 10.329 7.64611C10.462 7.48145 10.5575 7.28973 10.6087 7.08436C10.6676 6.85176 10.6964 6.61254 10.6942 6.37261C10.7088 6.08922 10.6868 5.80515 10.629 5.52736C10.5741 5.32288 10.4712 5.13443 10.329 4.97761C10.2174 4.85098 10.0808 4.74883 9.92773 4.67761C9.79631 4.61679 9.65807 4.57197 9.51598 4.54411C9.45947 4.53477 9.40224 4.5305 9.34498 4.53136M9.20848 7.48411H9.13348V5.18611H9.14323C9.29785 5.16832 9.45429 5.19621 9.59323 5.26636C9.69497 5.3476 9.77788 5.44996 9.83623 5.56636C9.89919 5.68886 9.93549 5.82331 9.94273 5.96086C9.94948 6.12586 9.94273 6.26086 9.94273 6.37261C9.94578 6.50133 9.9375 6.63008 9.91798 6.75736C9.89486 6.88803 9.85213 7.01446 9.79123 7.13236C9.72229 7.24197 9.62916 7.33434 9.51898 7.40236C9.42644 7.46221 9.31687 7.49013 9.20698 7.48186M13.0147 4.54561H11.1922V8.14561H11.9632V6.71761H12.9382V6.04861H11.9632V5.21461H13.0132V4.54561" fill="white"/>
</svg>
