<svg width="54" height="54" viewBox="0 0 54 54" fill="none" xmlns="http://www.w3.org/2000/svg">
<path d="M24.333 43.0026H29.6663V37.6693H24.333V43.0026ZM26.9997 0.335938C23.4978 0.335937 20.0301 1.02569 16.7948 2.36582C13.5594 3.70594 10.6197 5.67019 8.14349 8.14642C3.14252 13.1474 0.333008 19.9302 0.333008 27.0026C0.333008 34.075 3.14252 40.8578 8.14349 45.8588C10.6197 48.335 13.5594 50.2993 16.7948 51.6394C20.0301 52.9795 23.4978 53.6693 26.9997 53.6693C34.0721 53.6693 40.8549 50.8598 45.8559 45.8588C50.8568 40.8578 53.6663 34.075 53.6663 27.0026C53.6663 23.5007 52.9766 20.0331 51.6365 16.7977C50.2963 13.5624 48.3321 10.6227 45.8559 8.14642C43.3796 5.67019 40.4399 3.70594 37.2046 2.36582C33.9692 1.02569 30.5016 0.335938 26.9997 0.335938ZM26.9997 48.3359C15.2397 48.3359 5.66634 38.7626 5.66634 27.0026C5.66634 15.2426 15.2397 5.66927 26.9997 5.66927C38.7597 5.66927 48.333 15.2426 48.333 27.0026C48.333 38.7626 38.7597 48.3359 26.9997 48.3359ZM26.9997 11.0026C24.1707 11.0026 21.4576 12.1264 19.4572 14.1268C17.4568 16.1272 16.333 18.8403 16.333 21.6693H21.6663C21.6663 20.2548 22.2282 18.8982 23.2284 17.898C24.2286 16.8978 25.5852 16.3359 26.9997 16.3359C28.4142 16.3359 29.7707 16.8978 30.7709 17.898C31.7711 18.8982 32.333 20.2548 32.333 21.6693C32.333 27.0026 24.333 26.3359 24.333 35.0026H29.6663C29.6663 29.0026 37.6663 28.3359 37.6663 21.6693C37.6663 18.8403 36.5425 16.1272 34.5421 14.1268C32.5418 12.1264 29.8286 11.0026 26.9997 11.0026Z" fill="#008ED6"/>
</svg>
