<svg width="22" height="14" viewBox="0 0 22 14" fill="none" xmlns="http://www.w3.org/2000/svg">
<path d="M11.0003 4.25C11.7297 4.25 12.4291 4.53973 12.9449 5.05546C13.4606 5.57118 13.7503 6.27065 13.7503 7C13.7503 7.72935 13.4606 8.42882 12.9449 8.94454C12.4291 9.46027 11.7297 9.75 11.0003 9.75C10.271 9.75 9.57151 9.46027 9.05578 8.94454C8.54006 8.42882 8.25033 7.72935 8.25033 7C8.25033 6.27065 8.54006 5.57118 9.05578 5.05546C9.57151 4.53973 10.271 4.25 11.0003 4.25ZM11.0003 0.125C15.5837 0.125 19.4978 2.97583 21.0837 7C19.4978 11.0242 15.5837 13.875 11.0003 13.875C6.41699 13.875 2.50283 11.0242 0.916992 7C2.50283 2.97583 6.41699 0.125 11.0003 0.125ZM2.91533 7C4.42783 10.08 7.55366 12.0417 11.0003 12.0417C14.447 12.0417 17.5728 10.08 19.0853 7C17.5728 3.92 14.447 1.95833 11.0003 1.95833C7.55366 1.95833 4.42783 3.92 2.91533 7Z" fill="#008ED6"/>
</svg>
