<svg width="22" height="20" viewBox="0 0 22 20" fill="none" xmlns="http://www.w3.org/2000/svg">
<path d="M20.6045 0.250001H6.27878C6.16138 0.249903 6.04511 0.272929 5.93661 0.317766C5.8281 0.362603 5.72949 0.428371 5.64641 0.511317C5.56332 0.594263 5.49739 0.692762 5.45237 0.801189C5.40735 0.909617 5.38413 1.02585 5.38403 1.14325V5.125L13.6858 7.5625L21.5 5.125V1.14325C21.4999 1.02579 21.4767 0.909492 21.4316 0.801016C21.3866 0.69254 21.3206 0.594008 21.2374 0.511052C21.1542 0.428096 21.0555 0.362343 20.9469 0.31755C20.8384 0.272758 20.722 0.249804 20.6045 0.250001Z" fill="#41A5EE"/>
<path d="M21.5 5.125H5.38403V10L13.6858 11.4625L21.5 10V5.125Z" fill="#2B7CD3"/>
<path d="M5.38403 10V14.875L13.1975 15.85L21.5 14.875V10H5.38403Z" fill="#185ABD"/>
<path d="M6.27878 19.75H20.6038C20.7213 19.7503 20.8377 19.7274 20.9464 19.6827C21.0551 19.6379 21.1539 19.5722 21.2371 19.4892C21.3204 19.4062 21.3864 19.3077 21.4316 19.1992C21.4767 19.0906 21.4999 18.9743 21.5 18.8568V14.875H5.38403V18.8568C5.38413 18.9742 5.40735 19.0904 5.45237 19.1988C5.49739 19.3072 5.56332 19.4057 5.64641 19.4887C5.72949 19.5716 5.8281 19.6374 5.93661 19.6822C6.04511 19.7271 6.16138 19.7501 6.27878 19.75Z" fill="#103F91"/>
<path opacity="0.1" d="M11.3255 4.14844H5.38403V16.3359H11.3255C11.5623 16.3348 11.789 16.2403 11.9567 16.0731C12.1243 15.9059 12.2193 15.6794 12.221 15.4427V5.04169C12.2193 4.80494 12.1243 4.57843 11.9567 4.41123C11.789 4.24403 11.5623 4.14961 11.3255 4.14844Z" fill="black"/>
<path opacity="0.2" d="M10.8373 4.64062H5.38403V16.8281H10.8373C11.074 16.8269 11.3008 16.7325 11.4684 16.5653C11.636 16.3981 11.731 16.1716 11.7328 15.9349V5.53387C11.731 5.29713 11.636 5.07062 11.4684 4.90342C11.3008 4.73622 11.074 4.6418 10.8373 4.64062Z" fill="black"/>
<path opacity="0.2" d="M10.8373 4.64062H5.38403V15.8531H10.8373C11.074 15.8519 11.3008 15.7575 11.4684 15.5903C11.636 15.4231 11.731 15.1966 11.7328 14.9599V5.53388C11.731 5.29713 11.636 5.07062 11.4684 4.90342C11.3008 4.73622 11.074 4.6418 10.8373 4.64062Z" fill="black"/>
<path opacity="0.2" d="M10.349 4.64062H5.38403V15.8531H10.349C10.5858 15.8519 10.8125 15.7575 10.9802 15.5903C11.1478 15.4231 11.2428 15.1966 11.2445 14.9599V5.53388C11.2428 5.29713 11.1478 5.07062 10.9802 4.90342C10.8125 4.73622 10.5858 4.6418 10.349 4.64062Z" fill="black"/>
<path d="M1.3955 4.64063H10.349C10.5862 4.64043 10.8137 4.7344 10.9816 4.9019C11.1496 5.06939 11.2441 5.2967 11.2445 5.53388V14.4724C11.2441 14.7095 11.1496 14.9369 10.9816 15.1044C10.8137 15.2719 10.5862 15.3658 10.349 15.3656H1.3955C1.27804 15.3658 1.16168 15.3429 1.05309 15.2981C0.944504 15.2533 0.845807 15.1875 0.762642 15.1046C0.679477 15.0216 0.613476 14.9231 0.56841 14.8146C0.523345 14.7061 0.500098 14.5898 0.5 14.4724V5.53388C0.500098 5.41641 0.523345 5.30012 0.56841 5.19164C0.613476 5.08316 0.679477 4.98463 0.762642 4.90168C0.845807 4.81872 0.944504 4.75297 1.05309 4.70818C1.16168 4.66338 1.27804 4.64043 1.3955 4.64063Z" fill="url(#paint0_linear_5204_102321)"/>
<path d="M4.17496 11.4948C4.19221 11.6328 4.20421 11.7528 4.20946 11.8555H4.23046C4.23796 11.758 4.25446 11.6403 4.27921 11.503C4.30396 11.3658 4.32571 11.2495 4.34596 11.1543L5.28721 7.099H6.50521L7.48021 11.0935C7.537 11.3406 7.57758 11.5911 7.60171 11.8435H7.61821C7.63612 11.5978 7.66994 11.3536 7.71946 11.1123L8.49871 7.09375H9.60646L8.23846 12.9048H6.94321L6.01546 9.06025C5.98846 8.94925 5.95796 8.80475 5.92396 8.62675C5.88996 8.44875 5.86896 8.31875 5.86096 8.23675H5.84521C5.83471 8.33125 5.81371 8.4715 5.78221 8.6575C5.75071 8.84425 5.72596 8.9815 5.70721 9.0715L4.83496 12.907H3.51796L2.14246 7.099H3.26746L4.11571 11.1625C4.14102 11.2722 4.1608 11.3831 4.17496 11.4948Z" fill="white"/>
<defs>
<linearGradient id="paint0_linear_5204_102321" x1="2.3705" y1="3.93863" x2="9.374" y2="16.0676" gradientUnits="userSpaceOnUse">
<stop stop-color="#2368C4"/>
<stop offset="0.5" stop-color="#1A5DBE"/>
<stop offset="1" stop-color="#1146AC"/>
</linearGradient>
</defs>
</svg>
