<svg viewBox="0 0 20 18" fill="none" xmlns="http://www.w3.org/2000/svg">
    <path
        d="M13.2083 8.89062C13.2083 7.88229 12.3833 7.05729 11.375 7.05729C10.3667 7.05729 9.54167 7.88229 9.54167 8.89062C9.54167 9.89896 10.3667 10.724 11.375 10.724C12.3833 10.724 13.2083 9.89896 13.2083 8.89062ZM11.375 0.640625C6.81917 0.640625 3.125 4.33479 3.125 8.89062H0.375L4.04167 12.5573L7.70833 8.89062H4.95833C4.95833 5.34313 7.8275 2.47396 11.375 2.47396C14.9225 2.47396 17.7917 5.34313 17.7917 8.89062C17.7917 12.4381 14.9225 15.3073 11.375 15.3073C9.99083 15.3073 8.7075 14.8581 7.65333 14.1156L6.35167 15.4356C7.745 16.499 9.48667 17.1406 11.375 17.1406C15.9308 17.1406 19.625 13.4465 19.625 8.89062C19.625 4.33479 15.9308 0.640625 11.375 0.640625Z"
        fill="#008ED6" />
</svg>