<svg width="27" height="25" viewBox="0 0 27 25" fill="none" xmlns="http://www.w3.org/2000/svg">
<path d="M16.7322 11.7031L6.35501 9.875V23.3834C6.35513 23.5302 6.38416 23.6755 6.44043 23.811C6.49671 23.9466 6.57913 24.0697 6.68298 24.1734C6.78684 24.277 6.9101 24.3592 7.04573 24.4153C7.18136 24.4713 7.3267 24.5001 7.47345 24.5H25.3797C25.5266 24.5004 25.6721 24.4718 25.808 24.4158C25.9438 24.3599 26.0673 24.2777 26.1714 24.174C26.2754 24.0703 26.358 23.9471 26.4144 23.8114C26.4708 23.6758 26.4999 23.5303 26.5 23.3834V18.4062L16.7322 11.7031Z" fill="#185C37"/>
<path d="M16.7322 0.125H7.47345C7.3267 0.124877 7.18136 0.15366 7.04573 0.209706C6.9101 0.265752 6.78684 0.347963 6.68298 0.451646C6.57913 0.555328 6.49671 0.678451 6.44043 0.813986C6.38416 0.94952 6.35513 1.09481 6.35501 1.24156V6.21875L16.7322 12.3125L22.2269 14.1406L26.5 12.3125V6.21875L16.7322 0.125Z" fill="#21A366"/>
<path d="M6.35501 6.21875H16.7322V12.3125H6.35501V6.21875Z" fill="#107C41"/>
<path opacity="0.1" d="M13.7819 5H6.35501V20.2344H13.7819C14.0778 20.2329 14.3613 20.1149 14.5708 19.9059C14.7803 19.6969 14.899 19.4137 14.9013 19.1178V6.11656C14.899 5.82063 14.7803 5.53749 14.5708 5.32849C14.3613 5.11949 14.0778 5.00147 13.7819 5Z" fill="black"/>
<path opacity="0.2" d="M13.1716 5.60938H6.35501V20.8438H13.1716C13.4675 20.8423 13.7509 20.7243 13.9605 20.5153C14.17 20.3063 14.2887 20.0231 14.2909 19.7272V6.72594C14.2887 6.43001 14.17 6.14686 13.9605 5.93787C13.7509 5.72887 13.4675 5.61085 13.1716 5.60938Z" fill="black"/>
<path opacity="0.2" d="M13.1716 5.60938H6.35501V19.625H13.1716C13.4675 19.6235 13.7509 19.5055 13.9605 19.2965C14.17 19.0875 14.2887 18.8044 14.2909 18.5084V6.72594C14.2887 6.43001 14.17 6.14686 13.9605 5.93787C13.7509 5.72887 13.4675 5.61085 13.1716 5.60938Z" fill="black"/>
<path opacity="0.2" d="M12.5613 5.60938H6.35501V19.625H12.5613C12.8572 19.6235 13.1406 19.5055 13.3502 19.2965C13.5597 19.0875 13.6784 18.8044 13.6806 18.5084V6.72594C13.6784 6.43001 13.5597 6.14686 13.3502 5.93787C13.1406 5.72887 12.8572 5.61085 12.5613 5.60938Z" fill="black"/>
<path d="M1.36938 5.60938H12.5613C12.8577 5.60913 13.1422 5.72659 13.352 5.93596C13.5619 6.14533 13.6801 6.42947 13.6806 6.72594V17.8991C13.6801 18.1955 13.5619 18.4797 13.352 18.689C13.1422 18.8984 12.8577 19.0159 12.5613 19.0156H1.36938C1.22254 19.0159 1.0771 18.9872 0.941367 18.9312C0.80563 18.8752 0.682258 18.793 0.578302 18.6893C0.474347 18.5856 0.391845 18.4625 0.335513 18.3269C0.279181 18.1913 0.250123 18.0459 0.25 17.8991V6.72594C0.250123 6.57911 0.279181 6.43374 0.335513 6.29814C0.391845 6.16255 0.474347 6.03938 0.578302 5.93569C0.682258 5.83199 0.80563 5.7498 0.941367 5.69381C1.0771 5.63782 1.22254 5.60913 1.36938 5.60938Z" fill="url(#paint0_linear_4800_207728)"/>
<path d="M3.71875 15.9416L6.07281 12.3003L3.91656 8.67969H5.64813L6.82469 10.9981C6.93344 11.2175 7.01219 11.3806 7.04781 11.4894H7.06375C7.14062 11.3131 7.22219 11.1434 7.3075 10.9775L8.56563 8.68344H10.1594L7.94781 12.2834L10.2156 15.9444H8.51969L7.16031 13.4028C7.09719 13.2935 7.04356 13.1791 7 13.0606H6.9775C6.93786 13.176 6.88501 13.2864 6.82 13.3897L5.42031 15.9416H3.71875Z" fill="white"/>
<path d="M25.3806 0.125002H16.7322V6.21875H26.5V1.24156C26.4999 1.09473 26.4708 0.949365 26.4145 0.81377C26.3582 0.678174 26.2757 0.55501 26.1717 0.451315C26.0678 0.34762 25.9444 0.265429 25.8087 0.209438C25.6729 0.153447 25.5275 0.124755 25.3806 0.125002Z" fill="#33C481"/>
<path d="M16.7322 12.3125H26.5V18.4062H16.7322V12.3125Z" fill="#107C41"/>
<defs>
<linearGradient id="paint0_linear_4800_207728" x1="2.58813" y1="4.73188" x2="11.3425" y2="19.8931" gradientUnits="userSpaceOnUse">
<stop stop-color="#18884F"/>
<stop offset="0.5" stop-color="#117E43"/>
<stop offset="1" stop-color="#0B6631"/>
</linearGradient>
</defs>
</svg>
