<svg width="18" height="18" viewBox="0 0 18 18" fill="none" xmlns="http://www.w3.org/2000/svg">
<path d="M4.4165 5.64635C3.67484 5.64635 3.07484 5.04635 3.07484 4.30469C3.07484 3.94886 3.21619 3.6076 3.4678 3.35599C3.71941 3.10437 4.06067 2.96302 4.4165 2.96302C5.15817 2.96302 5.75817 3.56302 5.75817 4.30469C5.75817 4.66052 5.61682 5.00178 5.36521 5.25339C5.11359 5.505 4.77234 5.64635 4.4165 5.64635ZM4.4165 0.554688C2.33317 0.554688 0.666504 2.22135 0.666504 4.30469C0.666504 7.11302 4.4165 11.2714 4.4165 11.2714C4.4165 11.2714 8.1665 7.11302 8.1665 4.30469C8.1665 2.22135 6.49984 0.554688 4.4165 0.554688ZM13.5832 5.64635C13.2273 5.64635 12.8861 5.505 12.6345 5.25339C12.3829 5.00178 12.2415 4.66052 12.2415 4.30469C12.2415 3.56302 12.8415 2.96302 13.5832 2.96302C14.3248 2.96302 14.9248 3.56302 14.9248 4.30469C14.9248 4.66052 14.7835 5.00178 14.5319 5.25339C14.2803 5.505 13.939 5.64635 13.5832 5.64635ZM13.5832 0.554688C11.4998 0.554688 9.83317 2.22135 9.83317 4.30469C9.83317 7.11302 13.5832 11.2714 13.5832 11.2714C13.5832 11.2714 17.3332 7.11302 17.3332 4.30469C17.3332 2.22135 15.6665 0.554688 13.5832 0.554688ZM13.5832 12.2214C12.5248 12.2214 11.5832 12.888 11.2332 13.888H6.7665C6.30817 12.588 4.87484 11.9047 3.58317 12.363C2.27484 12.8214 1.5915 14.2547 2.04984 15.5547C2.5165 16.8547 3.9415 17.538 5.24984 17.0797C5.95817 16.8297 6.49984 16.263 6.7665 15.5547H11.2415C11.6998 16.8547 13.1332 17.538 14.4165 17.0797C15.7332 16.6214 16.4165 15.188 15.9582 13.888C15.5998 12.888 14.6498 12.2214 13.5832 12.2214ZM13.5832 15.9714C13.2517 15.9714 12.9337 15.8397 12.6993 15.6052C12.4649 15.3708 12.3332 15.0529 12.3332 14.7214C12.3332 14.3898 12.4649 14.0719 12.6993 13.8375C12.9337 13.6031 13.2517 13.4714 13.5832 13.4714C13.9147 13.4714 14.2326 13.6031 14.4671 13.8375C14.7015 14.0719 14.8332 14.3898 14.8332 14.7214C14.8332 15.0529 14.7015 15.3708 14.4671 15.6052C14.2326 15.8397 13.9147 15.9714 13.5832 15.9714Z" fill="#6C6B76"/>
</svg>
