<svg width="14" height="15" viewBox="0 0 14 15" fill="none" xmlns="http://www.w3.org/2000/svg">
<path d="M8.268 0.875V2.3065C9.968 2.316 11.9465 2.289 13.645 2.3145C13.966 2.3145 13.98 2.5985 13.984 2.8465C14.011 5.8175 13.9775 8.874 14 11.8465C13.994 11.9635 13.997 12.3965 13.9935 12.5195C13.9825 12.931 13.7765 12.949 13.365 12.9615C13.299 12.9615 13.105 12.9645 13.041 12.9675C11.4505 12.9595 9.86 12.963 8.268 12.963V14.554L0 13.2815V2.151L8.268 0.875Z" fill="#D33922"/>
<path d="M8.2681 2.78125H13.5181V12.4812H8.2681V11.2122H12.0851V10.5747H8.2681V9.77975H12.0851V9.14375H8.2696C8.2696 8.83175 8.2696 8.52025 8.2666 8.20875C8.57889 8.32141 8.91237 8.36304 9.24277 8.33061C9.57317 8.29817 9.89218 8.19249 10.1766 8.02125C10.4665 7.83075 10.7067 7.57371 10.877 7.27156C11.0474 6.9694 11.1431 6.63089 11.1561 6.28425C10.4561 6.27925 9.7596 6.28125 9.0631 6.28125C9.0631 5.58925 9.0711 4.89775 9.0486 4.20725C8.7876 4.25725 8.5271 4.31225 8.2676 4.36775V2.78175" fill="white"/>
<path d="M9.38285 3.875C9.9252 3.90898 10.4367 4.13914 10.8218 4.52252C11.2069 4.9059 11.4394 5.41631 11.4758 5.9585C10.7758 5.9665 10.0793 5.9635 9.38135 5.9635V3.875" fill="#D33922"/>
<path d="M2.55003 5.0754C3.41353 5.1169 4.46003 4.7334 5.17603 5.3809C5.86153 6.2129 5.68003 7.7429 4.66403 8.2404C4.29461 8.38668 3.89413 8.43692 3.50003 8.3864C3.50003 9.0084 3.49703 9.6304 3.50003 10.2519C3.18503 10.2249 2.86853 10.1979 2.55353 10.1724C2.53903 8.4724 2.53603 6.7724 2.55353 5.0724" fill="white"/>
<path d="M3.49649 5.93597C3.80999 5.92147 4.19649 5.86447 4.40949 6.15847C4.49465 6.31857 4.54089 6.49647 4.54445 6.67777C4.54801 6.85907 4.5088 7.03866 4.42999 7.20197C4.24849 7.52947 3.83849 7.49797 3.52199 7.53597C3.48849 7.00297 3.49199 6.47047 3.49649 5.93597Z" fill="#D33922"/>
</svg>
