<svg class="mr-2" width="30" height="30" viewBox="0 0 30 30" fill="none" xmlns="http://www.w3.org/2000/svg">
  <path d="M27.0056 2.8125H9.09845C8.9517 2.81238 8.80636 2.84116 8.67073 2.89721C8.5351 2.95325 8.41184 3.03546 8.30798 3.13915C8.20413 3.24283 8.12171 3.36595 8.06543 3.50149C8.00916 3.63702 7.98013 3.78231 7.98001 3.92906V8.90625L18.3572 11.9531L28.125 8.90625V3.92906C28.1249 3.78223 28.0958 3.63687 28.0395 3.50127C27.9832 3.36567 27.9007 3.24251 27.7967 3.13881C27.6928 3.03512 27.5694 2.95293 27.4336 2.89694C27.2979 2.84095 27.1525 2.81226 27.0056 2.8125Z" fill="#41A5EE"/>
  <path d="M28.125 8.90625H7.98001V15L18.3572 16.8281L28.125 15V8.90625Z" fill="#2B7CD3"/>
  <path d="M7.98001 15V21.0937L17.7469 22.3125L28.125 21.0937V15H7.98001Z" fill="#185ABD"/>
  <path d="M9.09845 27.1875H27.0047C27.1516 27.1879 27.2971 27.1593 27.433 27.1033C27.5688 27.0474 27.6923 26.9652 27.7964 26.8615C27.9004 26.7578 27.983 26.6346 28.0394 26.4989C28.0958 26.3633 28.1249 26.2178 28.125 26.0709V21.0938H7.98001V26.0709C7.98013 26.2177 8.00916 26.363 8.06543 26.4985C8.12171 26.634 8.20413 26.7572 8.30798 26.8609C8.41184 26.9645 8.5351 27.0467 8.67073 27.1028C8.80636 27.1588 8.9517 27.1876 9.09845 27.1875Z" fill="#103F91"/>
  <path opacity="0.1" d="M15.4069 7.6875H7.98001V22.9219H15.4069C15.7028 22.9204 15.9863 22.8024 16.1958 22.5934C16.4053 22.3844 16.524 22.1012 16.5263 21.8053V8.80406C16.524 8.50813 16.4053 8.22499 16.1958 8.01599C15.9863 7.80699 15.7028 7.68897 15.4069 7.6875Z" fill="black"/>
  <path opacity="0.2" d="M14.7966 8.29688H7.98001V23.5313H14.7966C15.0925 23.5298 15.3759 23.4118 15.5855 23.2028C15.795 22.9938 15.9137 22.7106 15.9159 22.4147V9.41344C15.9137 9.11751 15.795 8.83436 15.5855 8.62537C15.3759 8.41637 15.0925 8.29835 14.7966 8.29688Z" fill="black"/>
  <path opacity="0.2" d="M14.7966 8.29688H7.98001V22.3125H14.7966C15.0925 22.311 15.3759 22.193 15.5855 21.984C15.795 21.775 15.9137 21.4919 15.9159 21.1959V9.41344C15.9137 9.11751 15.795 8.83436 15.5855 8.62537C15.3759 8.41637 15.0925 8.29835 14.7966 8.29688Z" fill="black"/>
  <path opacity="0.2" d="M14.1863 8.29688H7.98001V22.3125H14.1863C14.4822 22.311 14.7656 22.193 14.9752 21.984C15.1847 21.775 15.3034 21.4919 15.3056 21.1959V9.41344C15.3034 9.11751 15.1847 8.83436 14.9752 8.62537C14.7656 8.41637 14.4822 8.29835 14.1863 8.29688Z" fill="black"/>
  <path d="M2.99434 8.29688H14.1862C14.4827 8.29663 14.7671 8.41409 14.977 8.62346C15.1869 8.83283 15.3051 9.11697 15.3056 9.41344V20.5866C15.3051 20.883 15.1869 21.1672 14.977 21.3765C14.7671 21.5859 14.4827 21.7034 14.1862 21.7031H2.99434C2.84751 21.7034 2.70207 21.6747 2.56634 21.6187C2.4306 21.5627 2.30723 21.4805 2.20327 21.3768C2.09932 21.2731 2.01681 21.15 1.96048 21.0144C1.90415 20.8788 1.87509 20.7334 1.87497 20.5866V9.41344C1.87509 9.26661 1.90415 9.12124 1.96048 8.98564C2.01681 8.85005 2.09932 8.72688 2.20327 8.62319C2.30723 8.51949 2.4306 8.4373 2.56634 8.38131C2.70207 8.32532 2.84751 8.29663 2.99434 8.29688Z" fill="url(#paint0_linear_3602_9304)"/>
  <path d="M6.46866 16.8606C6.49023 17.0331 6.50523 17.1831 6.51179 17.3116H6.53804C6.54741 17.1897 6.56804 17.0425 6.59898 16.8709C6.62991 16.6994 6.6571 16.5541 6.68241 16.435L7.85898 11.3659H9.38148L10.6002 16.3591C10.6712 16.6679 10.7219 16.9811 10.7521 17.2966H10.7727C10.7951 16.9895 10.8374 16.6841 10.8993 16.3825L11.8734 11.3594H13.258L11.548 18.6231H9.92898L8.76929 13.8175C8.73554 13.6787 8.69741 13.4981 8.65491 13.2756C8.61241 13.0531 8.58616 12.8906 8.57616 12.7881H8.55648C8.54335 12.9063 8.5171 13.0816 8.47773 13.3141C8.43835 13.5475 8.40741 13.7191 8.38398 13.8316L7.29366 18.6259H5.64741L3.92804 11.3659H5.33429L6.3946 16.4453C6.42625 16.5824 6.45097 16.721 6.46866 16.8606Z" fill="white"/>
  <defs>
  <linearGradient id="paint0_linear_3602_9304" x1="4.21309" y1="7.41938" x2="12.9675" y2="22.5806" gradientUnits="userSpaceOnUse">
  <stop stop-color="#2368C4"/>
  <stop offset="0.5" stop-color="#1A5DBE"/>
  <stop offset="1" stop-color="#1146AC"/>
  </linearGradient>
  </defs>
</svg>